<?xml version="1.0" standalone="no"?>
<!DOCTYPE svg PUBLIC "-//W3C//DTD SVG 20010904//EN"
 "http://www.w3.org/TR/2001/REC-SVG-20010904/DTD/svg10.dtd">
<svg version="1.0" xmlns="http://www.w3.org/2000/svg"
 width="768.000000pt" height="792.000000pt" viewBox="0 0 768.000000 792.000000"
 preserveAspectRatio="xMidYMid meet">
<metadata>
Created by potrace 1.16, written by Peter Selinger 2001-2019
</metadata>
<g transform="translate(0.000000,792.000000) scale(0.100000,-0.100000)"
fill="#000000" stroke="none">
<path d="M4345 7526 c-71 -17 -200 -81 -252 -125 -133 -112 -179 -156 -249
-238 -146 -170 -154 -188 -81 -181 38 5 303 -12 437 -28 30 -3 78 -13 106 -21
65 -20 104 -2 206 98 40 39 89 79 109 89 19 10 42 26 50 36 8 9 38 28 68 41
30 14 67 35 82 47 15 13 58 31 96 40 121 31 194 96 147 131 -11 8 -50 19 -89
26 -38 6 -101 23 -139 36 -136 49 -385 74 -491 49z"/>
<path d="M3524 7409 c-10 -11 -32 -28 -49 -36 -37 -19 -250 -237 -272 -278 -8
-16 -26 -42 -40 -57 -54 -57 -9 -83 85 -48 71 27 87 41 122 111 16 30 36 61
45 69 9 7 25 31 36 52 11 22 27 42 35 45 8 3 23 22 34 43 10 20 31 45 45 54
18 12 25 24 23 39 -4 30 -39 33 -64 6z"/>
<path d="M5380 7114 c-14 -3 -45 -7 -69 -10 -65 -8 -101 -50 -101 -116 0 -50
-32 -98 -66 -98 -7 0 -24 -14 -36 -31 -13 -17 -43 -41 -68 -54 -25 -13 -67
-46 -95 -75 l-50 -51 62 -57 c34 -31 70 -70 79 -87 10 -16 30 -46 45 -65 15
-19 35 -59 44 -89 27 -82 51 -101 127 -101 83 0 156 -30 186 -77 18 -27 29
-34 50 -31 40 5 42 52 4 101 -17 21 -36 64 -46 103 -10 37 -26 80 -37 96 -12
16 -31 55 -44 88 -13 33 -33 72 -44 86 -24 30 -28 53 -36 192 -7 131 1 137
200 130 137 -5 204 -22 261 -67 34 -27 64 -28 64 -1 0 32 -107 134 -178 169
-54 27 -172 54 -217 49 -5 0 -21 -2 -35 -4z"/>
<path d="M3916 6368 c-48 -51 -88 -100 -195 -247 -19 -25 -40 -50 -48 -54 -7
-4 -22 -25 -33 -47 -11 -21 -35 -48 -54 -59 -60 -38 -62 -76 -5 -125 54 -45
89 -58 120 -42 25 13 26 16 15 53 -5 16 1 30 24 55 17 18 51 58 76 88 87 104
129 152 161 183 18 16 37 45 43 63 7 20 25 42 45 54 80 50 38 120 -73 120 -28
0 -43 -9 -76 -42z"/>
<path d="M2826 6094 c-15 -38 6 -98 27 -77 15 15 4 93 -13 93 -4 0 -11 -7 -14
-16z"/>
<path d="M5492 5815 c-18 -13 -22 -25 -21 -58 0 -23 -2 -60 -6 -82 -9 -54 11
-71 104 -86 40 -6 99 -20 130 -30 111 -39 291 -33 334 10 21 20 21 20 -6 76
-36 72 -54 83 -189 106 -62 12 -142 32 -177 46 -84 34 -139 39 -169 18z"/>
<path d="M2893 5445 c-12 -8 -42 -46 -67 -83 -24 -37 -54 -76 -65 -86 -12 -11
-21 -27 -21 -36 0 -36 26 -43 164 -44 187 -1 202 16 116 123 -27 35 -52 72
-56 84 -7 23 -33 57 -43 57 -4 0 -16 -7 -28 -15z"/>
<path d="M5108 5214 c-27 -13 -48 -29 -48 -34 0 -5 -21 -30 -46 -56 -57 -59
-54 -80 20 -149 67 -63 153 -170 172 -213 7 -19 25 -47 38 -62 15 -18 28 -52
35 -90 16 -95 49 -119 76 -57 34 76 68 166 82 217 8 30 27 70 42 90 15 19 32
48 39 63 12 29 61 90 140 177 65 73 69 70 -113 95 -60 9 -145 22 -189 30 -117
22 -192 19 -248 -11z"/>
<path d="M6109 4739 c-70 -24 -160 -119 -208 -220 -17 -35 -38 -75 -46 -89 -7
-14 -19 -87 -26 -167 -12 -137 -12 -147 11 -263 24 -127 41 -167 60 -140 5 8
10 33 10 55 2 154 21 356 39 410 60 183 122 294 174 311 29 9 87 64 87 83 0
43 -23 47 -101 20z"/>
<path d="M3680 4713 c-25 -2 -121 -8 -215 -13 -359 -21 -432 -28 -513 -56 -60
-20 -88 -25 -128 -20 -63 7 -79 -7 -71 -59 6 -39 -13 -68 -42 -63 -12 2 -17
18 -21 65 -6 71 -13 81 -66 94 -58 13 -225 11 -253 -4 -65 -33 -52 -72 35
-103 32 -11 78 -33 100 -48 85 -56 138 -69 282 -71 151 -3 144 -7 146 83 1 73
18 83 139 80 56 -1 92 3 99 10 55 55 106 -45 53 -102 -27 -29 -33 -74 -13 -94
20 -20 59 -14 107 17 25 17 82 40 126 52 44 12 96 29 115 39 19 9 58 25 86 34
28 9 66 28 84 41 18 13 55 32 81 40 66 22 80 42 50 66 -23 19 -59 21 -181 12z"/>
<path d="M4615 4401 c-3 -12 -3 -41 1 -66 10 -67 0 -74 -109 -74 -75 0 -96 4
-119 20 -43 31 -88 41 -126 28 -69 -23 -16 -69 80 -69 71 0 75 -7 77 -115 1
-126 -6 -130 -229 -130 -165 0 -165 0 -168 -29 -3 -24 4 -36 34 -61 37 -31 38
-34 39 -103 2 -105 0 -106 -189 -110 -205 -5 -230 0 -264 47 -15 21 -39 45
-54 54 -29 17 -36 45 -16 65 17 17 23 15 36 -13 6 -14 18 -25 26 -25 36 0 28
47 -10 56 -13 3 -33 22 -44 41 -18 30 -24 34 -48 29 -15 -3 -49 -10 -77 -16
-35 -7 -57 -18 -72 -37 -61 -77 -55 -74 -150 -69 -121 6 -150 48 -107 151 19
46 7 81 -30 91 -54 13 -61 5 -66 -81 -3 -55 -12 -93 -27 -121 -30 -57 -43
-138 -43 -263 0 -196 -16 -325 -44 -374 -42 -71 -25 -105 59 -115 44 -5 47 -3
90 44 45 48 45 48 176 54 168 7 173 11 144 146 -10 47 21 77 67 63 18 -5 65
-8 104 -7 84 3 100 -6 115 -68 17 -67 37 -79 129 -76 93 3 58 28 332 -243 144
-142 178 -181 184 -210 4 -21 20 -49 41 -69 36 -34 36 -34 38 -148 5 -205 -16
-244 -116 -219 -53 14 -46 16 -116 -35 -15 -11 -51 -17 -112 -20 -89 -4 -89
-4 -131 31 -23 19 -53 38 -67 41 -35 9 -199 -1 -255 -16 -79 -20 -65 -30 80
-55 124 -21 130 -27 128 -124 -1 -76 -3 -82 -34 -114 -29 -29 -33 -40 -31 -79
2 -24 -1 -49 -5 -56 -12 -19 -239 -4 -301 20 -44 18 -70 19 -230 16 -180 -3
-180 -3 -190 28 -5 17 -23 48 -40 70 -35 45 -50 148 -32 221 13 51 1 69 -50
79 -90 17 -113 -61 -49 -166 33 -55 33 -55 39 -235 5 -183 6 -187 57 -315 63
-159 230 -219 230 -82 0 81 15 92 124 92 123 0 133 -8 149 -114 18 -117 26
-121 220 -120 125 1 162 5 207 21 30 11 84 31 120 43 36 12 74 30 85 40 11 9
40 29 65 44 53 31 133 93 249 192 20 17 50 39 68 48 74 38 83 91 18 107 -25 6
-49 19 -54 28 -16 30 4 251 29 311 16 42 24 89 31 200 5 80 14 168 21 195 13
50 13 50 63 51 28 1 59 4 71 8 57 20 74 -59 74 -342 0 -237 -8 -288 -45 -302
-51 -19 -57 -80 -9 -80 32 0 74 34 202 162 181 182 186 191 151 259 -34 68
-78 521 -63 663 5 51 3 64 -11 76 -16 13 -20 11 -39 -14 -98 -129 -241 -207
-373 -202 -69 2 -71 5 -74 116 -3 103 19 176 74 245 13 16 30 41 37 55 11 22
45 62 201 239 17 19 38 50 49 70 10 20 27 45 39 55 11 10 25 34 30 52 13 46
-11 233 -39 308 -13 32 -28 82 -35 111 -6 29 -25 73 -41 99 -71 115 -68 111
-106 114 -29 3 -38 -1 -43 -17z"/>
<path d="M2411 3826 c-11 -13 -19 -50 -37 -156 -8 -48 29 -174 65 -225 15 -22
32 -50 36 -63 9 -32 62 -90 96 -108 42 -21 58 10 70 138 5 57 14 131 20 166
17 91 1 112 -84 112 -76 0 -87 9 -87 71 0 26 -3 54 -6 63 -8 20 -57 21 -73 2z"/>
<path d="M5457 3235 c-7 -17 0 -43 19 -65 7 -8 14 -42 16 -75 3 -60 3 -60 43
-63 92 -7 102 63 15 101 -47 21 -49 24 -52 67 -3 46 -29 68 -41 35z"/>
<path d="M3674 3008 c-16 -12 -51 -42 -79 -68 -27 -26 -65 -53 -84 -59 -19 -6
-48 -22 -66 -35 -17 -13 -52 -34 -78 -46 -53 -25 -80 -65 -75 -108 3 -25 6
-27 48 -25 118 6 264 2 356 -9 99 -11 102 -11 140 12 23 14 63 25 99 29 95 9
86 30 -81 195 -76 75 -141 136 -145 136 -3 0 -19 -10 -35 -22z"/>
<path d="M2676 2841 c-3 -5 0 -24 8 -42 7 -19 17 -55 20 -81 7 -45 37 -98 57
-98 6 0 31 10 57 22 34 16 66 22 115 23 47 0 70 4 76 14 18 28 1 41 -53 41
-45 0 -58 5 -92 34 -36 30 -155 96 -174 96 -5 0 -11 -4 -14 -9z"/>
<path d="M6152 2398 c-17 -29 -62 -87 -100 -129 -142 -157 -127 -92 -147 -614
-13 -359 -13 -360 -50 -509 -20 -81 -43 -159 -51 -172 -27 -40 -14 -61 19 -30
15 14 40 32 55 40 27 14 250 244 279 287 9 13 29 38 44 54 43 46 96 191 110
302 17 137 7 385 -21 483 -11 41 -27 118 -36 170 -27 164 -27 165 -50 168 -17
2 -28 -9 -52 -50z"/>
<path d="M5054 1335 c-9 -14 -30 -33 -46 -41 -16 -8 -37 -29 -48 -46 -11 -18
-63 -79 -117 -136 -54 -57 -105 -115 -113 -128 -8 -13 -23 -27 -33 -30 -23 -7
-50 -48 -45 -70 2 -9 18 -22 37 -28 46 -15 53 -44 36 -158 -11 -71 -21 -101
-43 -132 -38 -54 -47 -90 -26 -110 19 -19 20 -19 75 -2 24 8 84 21 134 31 96
17 156 45 180 82 26 40 65 189 81 314 15 119 15 119 -12 186 -27 67 -31 118
-21 257 3 38 -17 44 -39 11z"/>
</g>
</svg>
