<?xml version="1.0" standalone="no"?>
<!DOCTYPE svg PUBLIC "-//W3C//DTD SVG 1.1//EN" "http://www.w3.org/Graphics/SVG/1.1/DTD/svg11.dtd" >
<svg xmlns="http://www.w3.org/2000/svg" xmlns:xlink="http://www.w3.org/1999/xlink" version="1.1" viewBox="-10 0 686 1000">
   <path fill="currentColor"
d="M438 812q2 -3 4 -3t1 4q-1 22 3 33q4 8 2 23q-4 30 -11 40q-5 7 -25 10q-14 3 -18 4q-8 3 -11 0q-4 -4 4 -14q4 -5 6 -17q3 -17 -5 -20q-5 -1 -5.5 -3t2 -5t5 -4t4.5 -4t15 -16t16 -17t7 -6t6 -5zM588.5 676.5q4.5 -6.5 7.5 -6.5q2 1 3 3.5t3 18.5q3 13 5 21q8 25 3 62
q-3 27 -15 38q-3 3 -6 7t-19 19.5t-19 16.5q-4 2 -8 5q-3 3 -4 1.5t2 -5.5q2 -2 7 -21t7 -65q2 -50 3.5 -56.5t16.5 -21.5q9 -10 13.5 -16.5zM112 620.5q1 -1.5 2 -1.5q2 0 11 5t13 8q5 4 13 4q5 0 7 1t0 4q-1 2 -11 2q-9 0 -15 3q-7 3 -8 3q-6 0 -8 -13q-1 -5 -3 -10
q-2 -4 -1 -5.5zM249 599.5q4 -2.5 5 -2.5t20 17q22 21 18 23q-2 1 -7 2q-9 0 -14 3t-19 2q-22 -3 -49 -1q-6 0 -6 -4q-2 -8 10 -13q6 -3 11 -6q4 -3 9 -4q4 -2 11 -8t11 -8.5zM493 571q2 -5 4 -1q2 2 2 5q0 6 7 9q9 3 8 8t-10 4q-4 0 -5 -1t-1 -7q0 -7 -2 -9q-4 -5 -3 -8z
M76 496q2 -2 5.5 -2t4.5 2t1 8t2 7.5t10 1.5t10.5 2.5t0.5 11.5q-1 8 -3 21q-1 12 -3 16t-6 2q-11 -6 -13 -14q-1 -2 -5 -8q-4 -5 -7 -14.5t-2 -14.5q3 -17 5 -19zM378 423q1 -3 6 -2q4 0 5.5 1.5t8.5 12.5q5 6 6 13q2 7 5 14t4.5 20.5t0.5 18t-4 6.5t-5 7q-3 5 -7 9
q-26 27 -27.5 30.5t-5.5 6.5q-10 13 -10 32q0 10 1.5 12t8.5 2q29 1 51 -25q3 -4 5.5 -2t1.5 9q-1 14 2 46t6.5 38.5t1 11t-21.5 21.5q-22 21 -28 21t-4 -6q2 -3 6 -4q6 -2 6 -38q0 -14 -0.5 -22.5t-1.5 -14t-3 -7t-5 -0.5t-10 1q-5 0 -6 1t-3 6q-1 5 -3 24q-1 18 -4 26
q-2 5 -3.5 20.5t-0.5 18.5q2 2 8 4q4 1 5 3t-1 5t-7 5q-4 2 -9 6q-24 19 -34 25q-6 3 -9 5q-3 3 -12 5q-4 2 -16 6q-8 2 -29 3q-20 0 -24 -2.5t-6 -13.5q-1 -10 -4.5 -12t-15.5 -2q-11 0 -14 2t-3 10q0 14 -15 8q-11 -6 -17 -19q-7 -16 -7 -40q-1 -23 -6 -30q-6 -10 -4 -16
t11 -4.5t7 9.5q-5 18 4 28l6 9q1 3 4 3.5t22 0.5q25 -1 31.5 1.5t23 3.5t18 -0.5t0.5 -7.5q0 -6 4.5 -10t4.5 -14q0 -9 -2.5 -11.5t-15.5 -4.5q-16 -2 -17 -4l7 -3q5 -1 18 -2t16 0q4 1 10 5q5 5 18 4q12 0 15 -2q7 -5 8.5 -5.5t7.5 0.5q10 3 13 -2.5t3 -25.5q-1 -14 -5 -18
q-5 -4 -6 -9t-25 -27q-29 -26 -32.5 -28.5t-13 -2t-13 -1.5t-4.5 -8q-2 -6 -5 -7.5t-11 -1.5q-10 0 -14 -1q-5 -1 -8 1.5t-2 6.5q3 13 0.5 15.5t-19.5 3.5q-14 0 -17 1t-8 6q-6 6 -12 5q-16 -2 -8 -14q6 -10 6 -48q0 -23 6 -33q3 -6 4 -16q0 -8 1.5 -9.5t7.5 -0.5q8 2 4 12
q-5 10 -1.5 14t16.5 5q9 0 11.5 -1t8.5 -8q3 -3 10 -5q6 -1 10 -2q4 0 7 4.5t6 4.5q7 2 4 6q-1 1 -3 1t-3 -3q-2 -4 -5 -1q-5 4 2 8q4 2 8 7q3 4 9 5t27 1q19 -1 22.5 -2.5t3.5 -11.5q-1 -9 -6 -13t-4 -8q0 -3 3 -3.5t20 -0.5q23 0 27 -2t4 -14q0 -11 -1.5 -13t-9.5 -2
q-13 0 -15 -5q0 -1 2 -3q1 0 2 -1q9 -2 18 4q4 2 16 2q11 0 13.5 -1.5t1.5 -7.5q-1 -5 0 -8zM250 383q21 -1 25 2q6 4 -7 8q-6 2 -11 5t-12 5q-6 2 -12 5q-4 2 -15 5q-12 2 -18 6q-10 6 -14 2q-6 -5 1 -12q8 -7 1 -13q-4 -3 -8 0q-1 2 -13 2q-13 -1 -16 1t-3 9q-1 8 -3 9.5
t-17 0.5q-25 0 -39 -9q-6 -3 -14 -6q-19 -6 -5 -13q3 -1 16 -1.5t19 1.5q6 1 7 3t2 9q1 8 3 8q3 0 4.5 -2t1.5 -6q-1 -5 1 -6.5t8 -1.5q7 1 18 -2q12 -4 70 -7q22 -1 30 -2zM583 380q13 -5 13 2q0 2 -4.5 6t-7.5 5q-11 3 -23 39q-5 14 -6 52q0 5 -1 7q-3 4 -5 -5
q-2 -4 -3 -12q-4 -16 -2 -34q2 -17 4 -21t6 -11q12 -23 29 -28zM445 320q11 -6 34 -2q7 1 26 4q21 3 21 5q0 1 -5 7q-17 17 -19 22q-3 5 -6 8q-4 5 -6 12q-3 11 -11 27q-5 12 -9 -4q-1 -1 -1 -3q-2 -8 -5 -11q-4 -4 -5 -8q-5 -11 -24 -27q-7 -7 -7.5 -10t5.5 -9t6 -7
q0 -2 6 -4zM142 290q3 -2 4 -2q3 0 6 8q1 2 7 10q9 10 6.5 13t-22.5 3q-22 0 -22 -6q0 -2 3 -4.5t9 -10.5q6 -9 9 -11zM498 243q6 -4 23 3q8 2 24 5q14 3 18.5 5t7.5 9q4 7 1 10q-4 4 -19 4t-27 -3q-8 -3 -17.5 -4t-12.5 -3.5t-2 -7.5q1 -4 1 -10t3 -8zM133 208q0 -2 2 -2
q1 0 2 5t-1 7t-4 -4q0 -3 1 -6zM282 173q6 -5 10 -5q8 0 12.5 2.5t4 6t-5.5 6.5t-6.5 7t-6.5 8q-5 5 -22 23q-7 8 -10 11q-4 5 -3 7q1 5 -2 7q-6 3 -17 -5q-11 -9 1 -16q4 -3 7 -8t5 -6q1 0 6 -7q18 -22 27 -31zM483 79l4 -1q14 -1 30 6q7 4 16 11.5t9 10.5q0 1 -1.5 1.5
t-3.5 0t-4 -1.5q-11 -8 -36 -9q-20 -1 -24 1.5t-3 15.5q1 20 5 24q2 3 5.5 11t6.5 11q2 3 5 12q2 9 6 13.5t4 8.5t-5 4q-3 1 -6 -4q-7 -10 -26 -10q-8 0 -11 -2.5t-6 -9.5q-2 -7 -6 -12q-3 -3 -6 -8q-3 -4 -11 -11l-9 -7l7 -7q7 -6 13 -9t9 -7t5 -4q4 0 6.5 -4t2.5 -9
q0 -13 14 -14q8 -1 10 -1zM228 41q3 -2 6 -2t3.5 3t-3.5 5t-6.5 6.5t-4.5 5.5t-5 6t-5 6q-2 2 -6 9q-5 10 -16 14q-16 6 -15 -1q0 -2 3 -5t5.5 -7t18 -19t19.5 -16.5t6 -4.5zM341 26q11 -2 32 0t35 6q11 4 19 5q10 2 12 3q9 6 -11 14q-4 2 -9 3q-9 2 -13 5t-11 6t-9 5
t-7 4.5t-15 11.5q-17 16 -28 12q-8 -2 -15 -2q-47 -5 -60 -4q-7 1 -6 -2t17 -21q12 -12 34 -30q15 -11 35 -16z" />
</svg>
